<svg width="26" height="26" viewBox="0 0 26 26" fill="none" xmlns="http://www.w3.org/2000/svg">
<path d="M15.5 20.5C15.8315 20.5 16.1494 20.3683 16.3839 20.1339C16.6183 19.8995 16.75 19.5815 16.75 19.25V16.75C16.75 16.4185 16.6183 16.1005 16.3839 15.8661C16.1494 15.6317 15.8315 15.5 15.5 15.5C15.1685 15.5 14.8505 15.6317 14.6161 15.8661C14.3817 16.1005 14.25 16.4185 14.25 16.75V19.25C14.25 19.5815 14.3817 19.8995 14.6161 20.1339C14.8505 20.3683 15.1685 20.5 15.5 20.5ZM10.5 20.5C10.8315 20.5 11.1494 20.3683 11.3839 20.1339C11.6183 19.8995 11.75 19.5815 11.75 19.25V16.75C11.75 16.4185 11.6183 16.1005 11.3839 15.8661C11.1494 15.6317 10.8315 15.5 10.5 15.5C10.1685 15.5 9.85052 15.6317 9.6161 15.8661C9.38168 16.1005 9.24998 16.4185 9.24998 16.75V19.25C9.24998 19.5815 9.38168 19.8995 9.6161 20.1339C9.85052 20.3683 10.1685 20.5 10.5 20.5ZM21.75 5.5H20.025L17.8625 1.1875C17.7964 1.02882 17.6983 0.885471 17.5743 0.766413C17.4503 0.647356 17.3031 0.555149 17.1419 0.495556C16.9807 0.435963 16.8089 0.410263 16.6373 0.420063C16.4657 0.429863 16.2979 0.474953 16.1445 0.552514C15.9911 0.630075 15.8554 0.738441 15.7457 0.870839C15.6361 1.00324 15.555 1.15682 15.5074 1.322C15.4598 1.48717 15.4468 1.66038 15.4692 1.83081C15.4916 2.00124 15.5489 2.16522 15.6375 2.3125L17.225 5.5H8.77498L10.3625 2.3125C10.4838 2.02114 10.4904 1.69466 10.381 1.39861C10.2716 1.10257 10.0542 0.858874 9.77256 0.716461C9.4909 0.574047 9.16579 0.543455 8.8625 0.630827C8.55922 0.718199 8.30021 0.917067 8.13748 1.1875L5.97499 5.5H4.24999C3.36647 5.51344 2.51608 5.83844 1.8488 6.41767C1.18151 6.9969 0.740202 7.79316 0.602698 8.66601C0.465194 9.53886 0.64033 10.4322 1.09722 11.1886C1.5541 11.9449 2.26339 12.5156 3.09999 12.8L4.02499 22.125C4.11826 23.0532 4.55417 23.9133 5.24757 24.5374C5.94098 25.1615 6.84211 25.5047 7.77499 25.5H18.25C19.1829 25.5047 20.084 25.1615 20.7774 24.5374C21.4708 23.9133 21.9067 23.0532 22 22.125L22.925 12.8C23.7634 12.5147 24.4738 11.942 24.9304 11.1831C25.3869 10.4242 25.5602 9.52829 25.4195 8.65393C25.2787 7.77957 24.8331 6.98324 24.1614 6.40597C23.4898 5.82871 22.6356 5.50777 21.75 5.5ZM19.4875 21.875C19.4564 22.1844 19.3111 22.4711 19.08 22.6791C18.8488 22.8872 18.5484 23.0016 18.2375 23H7.76248C7.45153 23.0016 7.15115 22.8872 6.92001 22.6791C6.68888 22.4711 6.54358 22.1844 6.51248 21.875L5.62498 13H20.375L19.4875 21.875ZM21.75 10.5H4.24999C3.91846 10.5 3.60052 10.3683 3.3661 10.1339C3.13168 9.89947 2.99998 9.58152 2.99998 9.25C2.99998 8.91848 3.13168 8.60054 3.3661 8.36612C3.60052 8.1317 3.91846 8 4.24999 8H21.75C22.0815 8 22.3994 8.1317 22.6339 8.36612C22.8683 8.60054 23 8.91848 23 9.25C23 9.58152 22.8683 9.89947 22.6339 10.1339C22.3994 10.3683 22.0815 10.5 21.75 10.5Z" fill="black"/>
</svg>
