<svg width="30" height="30" viewBox="0 0 30 30" fill="none" xmlns="http://www.w3.org/2000/svg">
<path d="M17.5 22.5C17.8315 22.5 18.1494 22.3683 18.3839 22.1339C18.6183 21.8995 18.75 21.5815 18.75 21.25V18.75C18.75 18.4185 18.6183 18.1005 18.3839 17.8661C18.1494 17.6317 17.8315 17.5 17.5 17.5C17.1685 17.5 16.8505 17.6317 16.6161 17.8661C16.3817 18.1005 16.25 18.4185 16.25 18.75V21.25C16.25 21.5815 16.3817 21.8995 16.6161 22.1339C16.8505 22.3683 17.1685 22.5 17.5 22.5ZM12.5 22.5C12.8315 22.5 13.1494 22.3683 13.3839 22.1339C13.6183 21.8995 13.75 21.5815 13.75 21.25V18.75C13.75 18.4185 13.6183 18.1005 13.3839 17.8661C13.1494 17.6317 12.8315 17.5 12.5 17.5C12.1685 17.5 11.8505 17.6317 11.6161 17.8661C11.3817 18.1005 11.25 18.4185 11.25 18.75V21.25C11.25 21.5815 11.3817 21.8995 11.6161 22.1339C11.8505 22.3683 12.1685 22.5 12.5 22.5ZM23.75 7.5H22.025L19.8625 3.1875C19.7964 3.02882 19.6983 2.88547 19.5743 2.76641C19.4503 2.64736 19.3031 2.55515 19.1419 2.49556C18.9807 2.43596 18.8089 2.41026 18.6373 2.42006C18.4657 2.42986 18.2979 2.47495 18.1445 2.55251C17.9911 2.63008 17.8554 2.73844 17.7457 2.87084C17.6361 3.00324 17.555 3.15682 17.5074 3.322C17.4598 3.48717 17.4468 3.66038 17.4692 3.83081C17.4916 4.00124 17.5489 4.16522 17.6375 4.3125L19.225 7.5H10.775L12.3625 4.3125C12.4838 4.02114 12.4904 3.69466 12.381 3.39861C12.2716 3.10257 12.0542 2.85887 11.7726 2.71646C11.4909 2.57405 11.1658 2.54345 10.8625 2.63083C10.5592 2.7182 10.3002 2.91707 10.1375 3.1875L7.97499 7.5H6.24999C5.36647 7.51344 4.51608 7.83844 3.8488 8.41767C3.18151 8.9969 2.7402 9.79316 2.6027 10.666C2.46519 11.5389 2.64033 12.4322 3.09722 13.1886C3.5541 13.9449 4.26339 14.5156 5.09999 14.8L6.02499 24.125C6.11826 25.0532 6.55417 25.9133 7.24757 26.5374C7.94098 27.1615 8.84211 27.5047 9.77499 27.5H20.25C21.1829 27.5047 22.084 27.1615 22.7774 26.5374C23.4708 25.9133 23.9067 25.0532 24 24.125L24.925 14.8C25.7634 14.5147 26.4738 13.942 26.9304 13.1831C27.3869 12.4242 27.5602 11.5283 27.4195 10.6539C27.2787 9.77957 26.8331 8.98324 26.1614 8.40597C25.4898 7.82871 24.6356 7.50777 23.75 7.5ZM21.4875 23.875C21.4564 24.1844 21.3111 24.4711 21.08 24.6791C20.8488 24.8872 20.5484 25.0016 20.2375 25H9.76248C9.45153 25.0016 9.15115 24.8872 8.92001 24.6791C8.68888 24.4711 8.54358 24.1844 8.51248 23.875L7.62498 15H22.375L21.4875 23.875ZM23.75 12.5H6.24999C5.91846 12.5 5.60052 12.3683 5.3661 12.1339C5.13168 11.8995 4.99998 11.5815 4.99998 11.25C4.99998 10.9185 5.13168 10.6005 5.3661 10.3661C5.60052 10.1317 5.91846 10 6.24999 10H23.75C24.0815 10 24.3994 10.1317 24.6339 10.3661C24.8683 10.6005 25 10.9185 25 11.25C25 11.5815 24.8683 11.8995 24.6339 12.1339C24.3994 12.3683 24.0815 12.5 23.75 12.5Z" fill="#B0B0B0"/>
</svg>
